# xmcd
#
# Track frame offsets: 
#        150
#        21240
#        37896
#        53491
#        69018
#        85447
#        98266
#        108561
#        126842
#        141618
#        151901
#        160621
#        180691
#        196448
#        207444
#        228400
#        239266
#        251039
#        266854
#        273263
#        281136
#        301228
#
# Disc length: 4387 seconds
#
# Revision: 0
# Processed by: cddbd v1.5.1PL2 Copyright (c) Steve Scherf et al.
# Submitted via: ExactAudioCopy v0.95b4
#
DISCID=33112116
DTITLE=Jack Johnson - House of Blues - West Hollywood, CA
DYEAR=2002
DGENRE=Blues
TTITLE0=Instrumental Jam
TTITLE1=Middle Man
TTITLE2=Holes To
TTITLE3=Fortunate Fool
TTITLE4=It's All
TTITLE5=Sexy Plexi . You're Just what I Needed
TTITLE6=Haleiwa
TTITLE7=Bubble Toes
TTITLE8=Nightmares
TTITLE9=On And On
TTITLE10=Trenchtown Rock > Garden Grove
TTITLE11=Inaudible Memories
TTITLE12=Rode Clowns w/ David Leach
TTITLE13=Who Do You Love
TTITLE14=Mudfootball
TTITLE15=E: Gone
TTITLE16=E: Pirate Looks at 40
TTITLE17=E: plastic Jesus > Fall Line
TTITLE18=E: high Tide, Low Tide
TTITLE19=E: Cissy Strut
TTITLE20=E: Who Knows
TTITLE21=E: Flakew/ Ben Harper
EXTD=
EXTT0=
EXTT1=
EXTT2=
EXTT3=
EXTT4=
EXTT5=
EXTT6=
EXTT7=
EXTT8=
EXTT9=
EXTT10=
EXTT11=
EXTT12=
EXTT13=
EXTT14=
EXTT15=
EXTT16=
EXTT17=
EXTT18=
EXTT19=
EXTT20=
EXTT21=
PLAYORDER=
